<svg width="216" height="213" viewBox="0 0 1316 1613" fill="none" xmlns="http://www.w3.org/2000/svg">
<path d="M1316 0H0V1713H1316V0Z" fill="white"/>
<path d="M1088.04 853.312C1088.04 1149.25 848.149 1389.13 552.215 1389.13C256.292 1389.13 16.3938 1149.25 16.3938 853.312C16.3938 557.384 256.292 317.492 552.215 317.492C848.149 317.492 1088.04 557.384 1088.04 853.312Z" fill="#1BA27A"/>
<path d="M803.691 587.685H296.323V710.173H488.763V890.209H611.251V710.173H803.691V587.685Z" fill="white"/>
<path d="M551.17 909.386C391.978 909.386 262.914 884.192 262.914 853.109C262.914 822.031 391.972 796.832 551.17 796.832C710.362 796.832 839.42 822.031 839.42 853.109C839.42 884.192 710.362 909.386 551.17 909.386ZM874.832 862.491C874.832 822.412 729.925 789.925 551.17 789.925C372.42 789.925 227.502 822.412 227.502 862.491C227.502 897.786 339.869 927.191 488.768 933.707V1192.15H611.246V933.809C761.292 927.497 874.832 897.968 874.832 862.491Z" fill="white"/>
<ellipse cx="999" cy="871.5" rx="305" ry="305.5" fill="#FF060A"/>
<path d="M1202.33 816.006C1183.27 798.376 1156.9 771.454 1135.42 752.36L1134.15 751.469C1132.04 749.769 1129.65 748.435 1127.1 747.523V747.523C1075.31 737.849 834.3 692.724 829.598 693.297C828.281 693.482 827.021 693.96 825.913 694.697L824.705 695.652C823.219 697.164 822.09 698.991 821.401 700.998L821.083 701.826V706.344V707.045C848.216 782.719 955.347 1030.62 976.443 1088.79C977.714 1092.74 980.128 1100.25 984.64 1100.63H985.656C988.071 1100.63 998.365 1087.01 998.365 1087.01C998.365 1087.01 1182.38 863.486 1201 839.682C1203.41 836.75 1205.54 833.596 1207.35 830.263C1207.82 827.655 1207.6 824.971 1206.72 822.472C1205.84 819.974 1204.33 817.746 1202.33 816.006V816.006ZM1045.58 842.037L1124.11 776.8L1170.18 819.316L1045.58 842.037ZM1015.08 837.773L879.86 726.775L1098.63 767.19L1015.08 837.773ZM1027.28 866.859L1165.67 844.52L1007.45 1035.46L1027.28 866.859ZM861.496 737.849L1003.77 858.776L983.178 1035.58L861.496 737.849Z" fill="white"/>
</svg>